<svg version="1.1" id="Layer_1" xmlns="http://www.w3.org/2000/svg" x="0" y="0" viewBox="0 0 216 50.9" xml:space="preserve"><style>.st1{fill:#fff}</style><path fill="#cf324c" d="M0 0h216v50.9H0z"/><path class="st1" d="M57.1 28.3h-1.9H33c-1.1 0-1.7.2-1.5 1.5v3.8h25.6v6.3h-1.4-39C15 40 15 40 15 38.5V13v-1.6h42v5.8h-3.7-21.8v5H57v6.2zM180 10.7h12.4c.9 0 1.9.3 2.6.8 4.5 2.7 6.5 6.9 6.9 12 .3 4.3-.2 8.6-3 12.2-1 1.3-2.4 2.4-3.8 3.4a5 5 0 01-2.7.7h-24.6a5 5 0 01-3.3-1c-5.2-4.2-7.1-9.7-6.4-16.2.3-3.4 1.4-6.4 3.8-9 1.8-1.9 3.9-3.1 6.8-3 3.7.3 7.5.1 11.3.1zm-4.8 6.4v16.1l.5.2h17.5c.3 0 .8-.3 1-.6 3.5-3.6 3.6-11 .3-14.7-.4-.5-1.3-1-2-1h-17.3zM80.2 11H94c1.6-.1 3 .4 4.3 1.4 3.3 2.5 5 6 5.5 9.9.5 3.9.3 7.7-1.4 11.4-.8 1.9-2 3.5-3.8 4.7a7.6 7.6 0 01-4.5 1.4H65.4c-1.6 0-1.6 0-1.6-1.5v-26c0-1 .3-1.3 1.4-1.3h15zm0 22.6H94c1.5 0 2.3-.6 3-1.7 2-2.8 2.3-6 1.7-9.3-.4-1.6-1-3.1-2-4.6-.3-.3-.8-.6-1.2-.6H81c-.6 0-.9.1-.9.8v15.4zM153.3 33.5V40h-3.9-29.6c-1 0-2-.4-2.8-1a14.3 14.3 0 01-6-10.3c-.8-5.3.2-10.1 3.7-14.3.6-.7 1.4-1.4 2.2-2 1.2-1 2.5-1.4 4-1.4h32.4v6.4l-23.3-.2h-1.4v16.4h24.7z"/><path fill="none" d="M0 0h216v50.9H0z"/><path class="st1" d="M204.9 41.3a3.2 3.2 0 010-6.4 3.2 3.2 0 010 6.4zm0-6a2.8 2.8 0 000 5.6 2.8 2.8 0 000-5.5z"/><path class="st1" d="M204.2 38.5v1.8h-.7V36h1.2c.6 0 1 0 1.2.3s.4.5.4 1-.2.8-.8 1l1.2 2h-.8l-1-1.7h-.7zm0-.5h.5c.3 0 .5 0 .7-.2s.2-.3.2-.5c0-.3 0-.5-.2-.6l-.7-.1h-.5V38z"/></svg>